<mxfile host="app.diagrams.net" agent="Mozilla/5.0 (Macintosh; Intel Mac OS X 10_15_7) AppleWebKit/537.36 (KHTML, like Gecko) Chrome/128.0.0.0 Safari/537.36" version="24.7.17">
  <diagram name="Página-1" id="A3s1typEy6LVJvrkkSRT">
    <mxGraphModel dx="3009" dy="1436" grid="0" gridSize="10" guides="1" tooltips="1" connect="1" arrows="1" fold="1" page="0" pageScale="1" pageWidth="827" pageHeight="1169" math="0" shadow="0">
      <root>
        <mxCell id="0" />
        <mxCell id="1" parent="0" />
        <mxCell id="LAPmsRIfMJ9QCSNvvUsR-1" value="" style="rounded=0;whiteSpace=wrap;html=1;strokeColor=#FF8000;fillColor=none;" vertex="1" parent="1">
          <mxGeometry x="347" y="249" width="1096" height="590" as="geometry" />
        </mxCell>
        <mxCell id="ZuAShIi7f60LiVRNFKSc-1" value="" style="outlineConnect=0;dashed=0;verticalLabelPosition=bottom;verticalAlign=top;align=center;html=1;shape=mxgraph.aws3.cloud_2;fillColor=#F58534;gradientColor=none;aspect=fixed;" parent="1" vertex="1">
          <mxGeometry x="347" y="249" width="50" height="50" as="geometry" />
        </mxCell>
        <mxCell id="LAPmsRIfMJ9QCSNvvUsR-2" value="&lt;font style=&quot;&quot; color=&quot;#ff8000&quot;&gt;Nuvem AWS&lt;/font&gt;" style="text;html=1;align=center;verticalAlign=middle;whiteSpace=wrap;rounded=0;" vertex="1" parent="1">
          <mxGeometry x="400" y="259" width="84" height="30" as="geometry" />
        </mxCell>
        <mxCell id="LAPmsRIfMJ9QCSNvvUsR-3" value="Região São Paulo (sa-east-1)" style="points=[[0,0],[0.25,0],[0.5,0],[0.75,0],[1,0],[1,0.25],[1,0.5],[1,0.75],[1,1],[0.75,1],[0.5,1],[0.25,1],[0,1],[0,0.75],[0,0.5],[0,0.25]];outlineConnect=0;gradientColor=none;html=1;whiteSpace=wrap;fontSize=12;fontStyle=0;container=1;pointerEvents=0;collapsible=0;recursiveResize=0;shape=mxgraph.aws4.group;grIcon=mxgraph.aws4.group_region;strokeColor=#00A4A6;fillColor=none;verticalAlign=top;align=left;spacingLeft=30;fontColor=#147EBA;dashed=1;" vertex="1" parent="1">
          <mxGeometry x="397" y="316" width="974" height="490" as="geometry" />
        </mxCell>
        <mxCell id="LAPmsRIfMJ9QCSNvvUsR-4" value="&amp;nbsp; &amp;nbsp; &amp;nbsp; &amp;nbsp;AZ-1 (sa-east-1a)" style="sketch=0;outlineConnect=0;gradientColor=none;html=1;whiteSpace=wrap;fontSize=12;fontStyle=0;shape=mxgraph.aws4.group;grIcon=mxgraph.aws4.group_availability_zone;strokeColor=#545B64;fillColor=none;verticalAlign=top;align=left;spacingLeft=30;fontColor=#545B64;dashed=1;" vertex="1" parent="1">
          <mxGeometry x="626" y="335" width="189" height="445" as="geometry" />
        </mxCell>
        <mxCell id="LAPmsRIfMJ9QCSNvvUsR-5" value="&amp;nbsp; &amp;nbsp; &amp;nbsp; &amp;nbsp; AZ-2 (sa-east-1b)" style="sketch=0;outlineConnect=0;gradientColor=none;html=1;whiteSpace=wrap;fontSize=12;fontStyle=0;shape=mxgraph.aws4.group;grIcon=mxgraph.aws4.group_availability_zone;strokeColor=#545B64;fillColor=none;verticalAlign=top;align=left;spacingLeft=30;fontColor=#545B64;dashed=1;" vertex="1" parent="1">
          <mxGeometry x="864" y="335" width="189" height="445" as="geometry" />
        </mxCell>
        <mxCell id="LAPmsRIfMJ9QCSNvvUsR-6" value="&amp;nbsp; &amp;nbsp; &amp;nbsp; &amp;nbsp;AZ-3 (sa-east-1c)" style="sketch=0;outlineConnect=0;gradientColor=none;html=1;whiteSpace=wrap;fontSize=12;fontStyle=0;shape=mxgraph.aws4.group;grIcon=mxgraph.aws4.group_availability_zone;strokeColor=#545B64;fillColor=none;verticalAlign=top;align=left;spacingLeft=30;fontColor=#545B64;dashed=1;" vertex="1" parent="1">
          <mxGeometry x="1102" y="335" width="189" height="445" as="geometry" />
        </mxCell>
        <mxCell id="LAPmsRIfMJ9QCSNvvUsR-22" value="" style="rounded=0;whiteSpace=wrap;html=1;strokeColor=#FF8000;fillColor=none;" vertex="1" parent="1">
          <mxGeometry x="1644" y="249" width="1096" height="590" as="geometry" />
        </mxCell>
        <mxCell id="LAPmsRIfMJ9QCSNvvUsR-23" value="" style="outlineConnect=0;dashed=0;verticalLabelPosition=bottom;verticalAlign=top;align=center;html=1;shape=mxgraph.aws3.cloud_2;fillColor=#F58534;gradientColor=none;aspect=fixed;" vertex="1" parent="1">
          <mxGeometry x="1644" y="249" width="50" height="50" as="geometry" />
        </mxCell>
        <mxCell id="LAPmsRIfMJ9QCSNvvUsR-24" value="&lt;font style=&quot;&quot; color=&quot;#ff8000&quot;&gt;Nuvem AWS&lt;/font&gt;" style="text;html=1;align=center;verticalAlign=middle;whiteSpace=wrap;rounded=0;" vertex="1" parent="1">
          <mxGeometry x="1697" y="259" width="84" height="30" as="geometry" />
        </mxCell>
        <mxCell id="LAPmsRIfMJ9QCSNvvUsR-25" value="Região São Paulo (sa-east-1)" style="points=[[0,0],[0.25,0],[0.5,0],[0.75,0],[1,0],[1,0.25],[1,0.5],[1,0.75],[1,1],[0.75,1],[0.5,1],[0.25,1],[0,1],[0,0.75],[0,0.5],[0,0.25]];outlineConnect=0;gradientColor=none;html=1;whiteSpace=wrap;fontSize=12;fontStyle=0;container=1;pointerEvents=0;collapsible=0;recursiveResize=0;shape=mxgraph.aws4.group;grIcon=mxgraph.aws4.group_region;strokeColor=#00A4A6;fillColor=none;verticalAlign=top;align=left;spacingLeft=30;fontColor=#147EBA;dashed=1;" vertex="1" parent="1">
          <mxGeometry x="1694" y="316" width="974" height="490" as="geometry" />
        </mxCell>
        <mxCell id="LAPmsRIfMJ9QCSNvvUsR-29" value="&lt;font color=&quot;#6666ff&quot;&gt;VPC&lt;/font&gt;" style="points=[[0,0],[0.25,0],[0.5,0],[0.75,0],[1,0],[1,0.25],[1,0.5],[1,0.75],[1,1],[0.75,1],[0.5,1],[0.25,1],[0,1],[0,0.75],[0,0.5],[0,0.25]];outlineConnect=0;gradientColor=none;html=1;whiteSpace=wrap;fontSize=12;fontStyle=0;container=1;pointerEvents=0;collapsible=0;recursiveResize=0;shape=mxgraph.aws4.group;grIcon=mxgraph.aws4.group_vpc2;strokeColor=#8C4FFF;fillColor=none;verticalAlign=top;align=left;spacingLeft=30;fontColor=#AAB7B8;dashed=0;" vertex="1" parent="LAPmsRIfMJ9QCSNvvUsR-25">
          <mxGeometry x="57" y="61" width="894" height="379" as="geometry" />
        </mxCell>
        <mxCell id="LAPmsRIfMJ9QCSNvvUsR-33" value="" style="ellipse;whiteSpace=wrap;html=1;aspect=fixed;fillColor=default;strokeColor=none;" vertex="1" parent="LAPmsRIfMJ9QCSNvvUsR-29">
          <mxGeometry x="-21" y="142" width="40" height="40" as="geometry" />
        </mxCell>
        <mxCell id="LAPmsRIfMJ9QCSNvvUsR-32" value="&lt;span style=&quot;background-color: rgb(255, 255, 255);&quot;&gt;Internet&lt;br&gt;Gateway&lt;/span&gt;" style="sketch=0;outlineConnect=0;fontColor=#232F3E;gradientColor=none;fillColor=#8C4FFF;strokeColor=none;dashed=0;verticalLabelPosition=bottom;verticalAlign=top;align=center;html=1;fontSize=12;fontStyle=0;aspect=fixed;pointerEvents=1;shape=mxgraph.aws4.internet_gateway;" vertex="1" parent="LAPmsRIfMJ9QCSNvvUsR-29">
          <mxGeometry x="-20" y="142" width="40" height="40" as="geometry" />
        </mxCell>
        <mxCell id="LAPmsRIfMJ9QCSNvvUsR-26" value="&amp;nbsp; &amp;nbsp; &amp;nbsp; &amp;nbsp;AZ-1 (sa-east-1a)" style="sketch=0;outlineConnect=0;gradientColor=none;html=1;whiteSpace=wrap;fontSize=12;fontStyle=0;shape=mxgraph.aws4.group;grIcon=mxgraph.aws4.group_availability_zone;strokeColor=#545B64;fillColor=none;verticalAlign=top;align=left;spacingLeft=30;fontColor=#545B64;dashed=1;" vertex="1" parent="1">
          <mxGeometry x="1923" y="335" width="189" height="445" as="geometry" />
        </mxCell>
        <mxCell id="LAPmsRIfMJ9QCSNvvUsR-27" value="&amp;nbsp; &amp;nbsp; &amp;nbsp; AZ-2 (sa-east-1b)" style="sketch=0;outlineConnect=0;gradientColor=none;html=1;whiteSpace=wrap;fontSize=12;fontStyle=0;shape=mxgraph.aws4.group;grIcon=mxgraph.aws4.group_availability_zone;strokeColor=#545B64;fillColor=none;verticalAlign=top;align=left;spacingLeft=30;fontColor=#545B64;dashed=1;" vertex="1" parent="1">
          <mxGeometry x="2161" y="335" width="189" height="445" as="geometry" />
        </mxCell>
        <mxCell id="LAPmsRIfMJ9QCSNvvUsR-28" value="&amp;nbsp; &amp;nbsp; &amp;nbsp; AZ-3 (sa-east-1c)" style="sketch=0;outlineConnect=0;gradientColor=none;html=1;whiteSpace=wrap;fontSize=12;fontStyle=0;shape=mxgraph.aws4.group;grIcon=mxgraph.aws4.group_availability_zone;strokeColor=#545B64;fillColor=none;verticalAlign=top;align=left;spacingLeft=30;fontColor=#545B64;dashed=1;" vertex="1" parent="1">
          <mxGeometry x="2399" y="335" width="189" height="445" as="geometry" />
        </mxCell>
        <mxCell id="LAPmsRIfMJ9QCSNvvUsR-30" value="Sub-rede pública" style="points=[[0,0],[0.25,0],[0.5,0],[0.75,0],[1,0],[1,0.25],[1,0.5],[1,0.75],[1,1],[0.75,1],[0.5,1],[0.25,1],[0,1],[0,0.75],[0,0.5],[0,0.25]];outlineConnect=0;gradientColor=none;html=1;whiteSpace=wrap;fontSize=12;fontStyle=0;container=1;pointerEvents=0;collapsible=0;recursiveResize=0;shape=mxgraph.aws4.group;grIcon=mxgraph.aws4.group_security_group;grStroke=0;strokeColor=#7AA116;fillColor=#F2F6E8;verticalAlign=top;align=left;spacingLeft=30;fontColor=#248814;dashed=0;" vertex="1" parent="1">
          <mxGeometry x="1937" y="399" width="160" height="130" as="geometry" />
        </mxCell>
        <mxCell id="LAPmsRIfMJ9QCSNvvUsR-31" value="Sub-rede privada" style="points=[[0,0],[0.25,0],[0.5,0],[0.75,0],[1,0],[1,0.25],[1,0.5],[1,0.75],[1,1],[0.75,1],[0.5,1],[0.25,1],[0,1],[0,0.75],[0,0.5],[0,0.25]];outlineConnect=0;gradientColor=none;html=1;whiteSpace=wrap;fontSize=12;fontStyle=0;container=1;pointerEvents=0;collapsible=0;recursiveResize=0;shape=mxgraph.aws4.group;grIcon=mxgraph.aws4.group_security_group;grStroke=0;strokeColor=#00A4A6;fillColor=#E6F6F7;verticalAlign=top;align=left;spacingLeft=30;fontColor=#147EBA;dashed=0;" vertex="1" parent="1">
          <mxGeometry x="1938" y="569" width="160" height="130" as="geometry" />
        </mxCell>
        <mxCell id="LAPmsRIfMJ9QCSNvvUsR-43" value="" style="rounded=0;whiteSpace=wrap;html=1;strokeColor=#FF8000;fillColor=none;" vertex="1" parent="1">
          <mxGeometry x="347" y="1039" width="1096" height="590" as="geometry" />
        </mxCell>
        <mxCell id="LAPmsRIfMJ9QCSNvvUsR-44" value="" style="outlineConnect=0;dashed=0;verticalLabelPosition=bottom;verticalAlign=top;align=center;html=1;shape=mxgraph.aws3.cloud_2;fillColor=#F58534;gradientColor=none;aspect=fixed;" vertex="1" parent="1">
          <mxGeometry x="347" y="1039" width="50" height="50" as="geometry" />
        </mxCell>
        <mxCell id="LAPmsRIfMJ9QCSNvvUsR-45" value="&lt;font style=&quot;&quot; color=&quot;#ff8000&quot;&gt;Nuvem AWS&lt;/font&gt;" style="text;html=1;align=center;verticalAlign=middle;whiteSpace=wrap;rounded=0;" vertex="1" parent="1">
          <mxGeometry x="400" y="1049" width="84" height="30" as="geometry" />
        </mxCell>
        <mxCell id="LAPmsRIfMJ9QCSNvvUsR-46" value="Região São Paulo (sa-east-1)" style="points=[[0,0],[0.25,0],[0.5,0],[0.75,0],[1,0],[1,0.25],[1,0.5],[1,0.75],[1,1],[0.75,1],[0.5,1],[0.25,1],[0,1],[0,0.75],[0,0.5],[0,0.25]];outlineConnect=0;gradientColor=none;html=1;whiteSpace=wrap;fontSize=12;fontStyle=0;container=1;pointerEvents=0;collapsible=0;recursiveResize=0;shape=mxgraph.aws4.group;grIcon=mxgraph.aws4.group_region;strokeColor=#00A4A6;fillColor=none;verticalAlign=top;align=left;spacingLeft=30;fontColor=#147EBA;dashed=1;" vertex="1" parent="1">
          <mxGeometry x="397" y="1106" width="974" height="490" as="geometry" />
        </mxCell>
        <mxCell id="LAPmsRIfMJ9QCSNvvUsR-47" value="&lt;font color=&quot;#6666ff&quot;&gt;VPC&lt;/font&gt;" style="points=[[0,0],[0.25,0],[0.5,0],[0.75,0],[1,0],[1,0.25],[1,0.5],[1,0.75],[1,1],[0.75,1],[0.5,1],[0.25,1],[0,1],[0,0.75],[0,0.5],[0,0.25]];outlineConnect=0;gradientColor=none;html=1;whiteSpace=wrap;fontSize=12;fontStyle=0;container=1;pointerEvents=0;collapsible=0;recursiveResize=0;shape=mxgraph.aws4.group;grIcon=mxgraph.aws4.group_vpc2;strokeColor=#8C4FFF;fillColor=none;verticalAlign=top;align=left;spacingLeft=30;fontColor=#AAB7B8;dashed=0;" vertex="1" parent="LAPmsRIfMJ9QCSNvvUsR-46">
          <mxGeometry x="57" y="61" width="894" height="379" as="geometry" />
        </mxCell>
        <mxCell id="LAPmsRIfMJ9QCSNvvUsR-50" value="&amp;nbsp; &amp;nbsp; &amp;nbsp; &amp;nbsp;AZ-1 (sa-east-1a)" style="sketch=0;outlineConnect=0;gradientColor=none;html=1;whiteSpace=wrap;fontSize=12;fontStyle=0;shape=mxgraph.aws4.group;grIcon=mxgraph.aws4.group_availability_zone;strokeColor=#545B64;fillColor=none;verticalAlign=top;align=left;spacingLeft=30;fontColor=#545B64;dashed=1;" vertex="1" parent="1">
          <mxGeometry x="626" y="1125" width="189" height="445" as="geometry" />
        </mxCell>
        <mxCell id="LAPmsRIfMJ9QCSNvvUsR-51" value="&amp;nbsp; &amp;nbsp; &amp;nbsp; AZ-2 (sa-east-1b)" style="sketch=0;outlineConnect=0;gradientColor=none;html=1;whiteSpace=wrap;fontSize=12;fontStyle=0;shape=mxgraph.aws4.group;grIcon=mxgraph.aws4.group_availability_zone;strokeColor=#545B64;fillColor=none;verticalAlign=top;align=left;spacingLeft=30;fontColor=#545B64;dashed=1;" vertex="1" parent="1">
          <mxGeometry x="864" y="1125" width="189" height="445" as="geometry" />
        </mxCell>
        <mxCell id="LAPmsRIfMJ9QCSNvvUsR-52" value="&amp;nbsp; &amp;nbsp; &amp;nbsp; AZ-3 (sa-east-1c)" style="sketch=0;outlineConnect=0;gradientColor=none;html=1;whiteSpace=wrap;fontSize=12;fontStyle=0;shape=mxgraph.aws4.group;grIcon=mxgraph.aws4.group_availability_zone;strokeColor=#545B64;fillColor=none;verticalAlign=top;align=left;spacingLeft=30;fontColor=#545B64;dashed=1;" vertex="1" parent="1">
          <mxGeometry x="1102" y="1125" width="189" height="445" as="geometry" />
        </mxCell>
        <mxCell id="LAPmsRIfMJ9QCSNvvUsR-63" value="" style="rounded=0;whiteSpace=wrap;html=1;strokeColor=#FF8000;fillColor=none;" vertex="1" parent="1">
          <mxGeometry x="1633" y="1039" width="1096" height="590" as="geometry" />
        </mxCell>
        <mxCell id="LAPmsRIfMJ9QCSNvvUsR-64" value="" style="outlineConnect=0;dashed=0;verticalLabelPosition=bottom;verticalAlign=top;align=center;html=1;shape=mxgraph.aws3.cloud_2;fillColor=#F58534;gradientColor=none;aspect=fixed;" vertex="1" parent="1">
          <mxGeometry x="1633" y="1039" width="50" height="50" as="geometry" />
        </mxCell>
        <mxCell id="LAPmsRIfMJ9QCSNvvUsR-65" value="&lt;font style=&quot;&quot; color=&quot;#ff8000&quot;&gt;Nuvem AWS&lt;/font&gt;" style="text;html=1;align=center;verticalAlign=middle;whiteSpace=wrap;rounded=0;" vertex="1" parent="1">
          <mxGeometry x="1686" y="1049" width="84" height="30" as="geometry" />
        </mxCell>
        <mxCell id="LAPmsRIfMJ9QCSNvvUsR-66" value="Região São Paulo (sa-east-1)" style="points=[[0,0],[0.25,0],[0.5,0],[0.75,0],[1,0],[1,0.25],[1,0.5],[1,0.75],[1,1],[0.75,1],[0.5,1],[0.25,1],[0,1],[0,0.75],[0,0.5],[0,0.25]];outlineConnect=0;gradientColor=none;html=1;whiteSpace=wrap;fontSize=12;fontStyle=0;container=1;pointerEvents=0;collapsible=0;recursiveResize=0;shape=mxgraph.aws4.group;grIcon=mxgraph.aws4.group_region;strokeColor=#00A4A6;fillColor=none;verticalAlign=top;align=left;spacingLeft=30;fontColor=#147EBA;dashed=1;" vertex="1" parent="1">
          <mxGeometry x="1683" y="1106" width="974" height="490" as="geometry" />
        </mxCell>
        <mxCell id="LAPmsRIfMJ9QCSNvvUsR-67" value="&lt;font color=&quot;#6666ff&quot;&gt;VPC&lt;/font&gt;" style="points=[[0,0],[0.25,0],[0.5,0],[0.75,0],[1,0],[1,0.25],[1,0.5],[1,0.75],[1,1],[0.75,1],[0.5,1],[0.25,1],[0,1],[0,0.75],[0,0.5],[0,0.25]];outlineConnect=0;gradientColor=none;html=1;whiteSpace=wrap;fontSize=12;fontStyle=0;container=1;pointerEvents=0;collapsible=0;recursiveResize=0;shape=mxgraph.aws4.group;grIcon=mxgraph.aws4.group_vpc2;strokeColor=#8C4FFF;fillColor=none;verticalAlign=top;align=left;spacingLeft=30;fontColor=#AAB7B8;dashed=0;" vertex="1" parent="LAPmsRIfMJ9QCSNvvUsR-66">
          <mxGeometry x="57" y="61" width="894" height="379" as="geometry" />
        </mxCell>
        <mxCell id="LAPmsRIfMJ9QCSNvvUsR-68" value="" style="ellipse;whiteSpace=wrap;html=1;aspect=fixed;fillColor=default;strokeColor=none;" vertex="1" parent="LAPmsRIfMJ9QCSNvvUsR-67">
          <mxGeometry x="-21" y="142" width="40" height="40" as="geometry" />
        </mxCell>
        <mxCell id="LAPmsRIfMJ9QCSNvvUsR-69" value="&lt;span style=&quot;background-color: rgb(255, 255, 255);&quot;&gt;Internet&lt;br&gt;Gateway&lt;/span&gt;" style="sketch=0;outlineConnect=0;fontColor=#232F3E;gradientColor=none;fillColor=#8C4FFF;strokeColor=none;dashed=0;verticalLabelPosition=bottom;verticalAlign=top;align=center;html=1;fontSize=12;fontStyle=0;aspect=fixed;pointerEvents=1;shape=mxgraph.aws4.internet_gateway;" vertex="1" parent="LAPmsRIfMJ9QCSNvvUsR-67">
          <mxGeometry x="-20" y="142" width="40" height="40" as="geometry" />
        </mxCell>
        <mxCell id="LAPmsRIfMJ9QCSNvvUsR-70" value="&amp;nbsp; &amp;nbsp; &amp;nbsp; &amp;nbsp;AZ-1 (sa-east-1a)" style="sketch=0;outlineConnect=0;gradientColor=none;html=1;whiteSpace=wrap;fontSize=12;fontStyle=0;shape=mxgraph.aws4.group;grIcon=mxgraph.aws4.group_availability_zone;strokeColor=#545B64;fillColor=none;verticalAlign=top;align=left;spacingLeft=30;fontColor=#545B64;dashed=1;" vertex="1" parent="1">
          <mxGeometry x="1912" y="1125" width="189" height="445" as="geometry" />
        </mxCell>
        <mxCell id="LAPmsRIfMJ9QCSNvvUsR-71" value="&amp;nbsp; &amp;nbsp; &amp;nbsp; AZ-2 (sa-east-1b)" style="sketch=0;outlineConnect=0;gradientColor=none;html=1;whiteSpace=wrap;fontSize=12;fontStyle=0;shape=mxgraph.aws4.group;grIcon=mxgraph.aws4.group_availability_zone;strokeColor=#545B64;fillColor=none;verticalAlign=top;align=left;spacingLeft=30;fontColor=#545B64;dashed=1;" vertex="1" parent="1">
          <mxGeometry x="2150" y="1125" width="189" height="445" as="geometry" />
        </mxCell>
        <mxCell id="LAPmsRIfMJ9QCSNvvUsR-72" value="&amp;nbsp; &amp;nbsp; &amp;nbsp; AZ-3 (sa-east-1c)" style="sketch=0;outlineConnect=0;gradientColor=none;html=1;whiteSpace=wrap;fontSize=12;fontStyle=0;shape=mxgraph.aws4.group;grIcon=mxgraph.aws4.group_availability_zone;strokeColor=#545B64;fillColor=none;verticalAlign=top;align=left;spacingLeft=30;fontColor=#545B64;dashed=1;" vertex="1" parent="1">
          <mxGeometry x="2388" y="1125" width="189" height="445" as="geometry" />
        </mxCell>
        <mxCell id="LAPmsRIfMJ9QCSNvvUsR-74" value="Sub-rede privada" style="points=[[0,0],[0.25,0],[0.5,0],[0.75,0],[1,0],[1,0.25],[1,0.5],[1,0.75],[1,1],[0.75,1],[0.5,1],[0.25,1],[0,1],[0,0.75],[0,0.5],[0,0.25]];outlineConnect=0;gradientColor=none;html=1;whiteSpace=wrap;fontSize=12;fontStyle=0;container=1;pointerEvents=0;collapsible=0;recursiveResize=0;shape=mxgraph.aws4.group;grIcon=mxgraph.aws4.group_security_group;grStroke=0;strokeColor=#00A4A6;fillColor=#E6F6F7;verticalAlign=top;align=left;spacingLeft=30;fontColor=#147EBA;dashed=0;" vertex="1" parent="1">
          <mxGeometry x="1927" y="1359" width="160" height="130" as="geometry" />
        </mxCell>
        <mxCell id="LAPmsRIfMJ9QCSNvvUsR-75" value="Sub-rede privada" style="points=[[0,0],[0.25,0],[0.5,0],[0.75,0],[1,0],[1,0.25],[1,0.5],[1,0.75],[1,1],[0.75,1],[0.5,1],[0.25,1],[0,1],[0,0.75],[0,0.5],[0,0.25]];outlineConnect=0;gradientColor=none;html=1;whiteSpace=wrap;fontSize=12;fontStyle=0;container=1;pointerEvents=0;collapsible=0;recursiveResize=0;shape=mxgraph.aws4.group;grIcon=mxgraph.aws4.group_security_group;grStroke=0;strokeColor=#00A4A6;fillColor=#E6F6F7;verticalAlign=top;align=left;spacingLeft=30;fontColor=#147EBA;dashed=0;" vertex="1" parent="1">
          <mxGeometry x="1926.5" y="1195" width="160" height="130" as="geometry" />
        </mxCell>
      </root>
    </mxGraphModel>
  </diagram>
</mxfile>
